<?xml version="1.0" encoding="utf-8"?>
<!-- Generator: Adobe Illustrator 15.0.0, SVG Export Plug-In . SVG Version: 6.00 Build 0)  -->
<!DOCTYPE svg PUBLIC "-//W3C//DTD SVG 1.1//EN" "http://www.w3.org/Graphics/SVG/1.1/DTD/svg11.dtd">
<svg version="1.1" id="Layer_1" xmlns="http://www.w3.org/2000/svg" xmlns:xlink="http://www.w3.org/1999/xlink" x="0px" y="0px"
	 width="112.5px" height="112.5px" viewBox="0 0 112.5 112.5" enable-background="new 0 0 112.5 112.5" xml:space="preserve">
<rect x="-0.625" y="-0.626" fill="#009C58" width="113.75" height="113.75"/>
<g>
	<path fill="#FFFFFF" d="M53.302,33.857c-2.306,0-4.485,0.289-6.533,0.865c-2.051,0.578-4.326,1.506-6.823,2.787l-4.035-10.857
		c2.498-1.6,5.443-2.834,8.839-3.699c3.395-0.866,6.726-1.297,9.993-1.297c4.098,0,7.479,0.544,10.138,1.634
		c2.655,1.092,4.752,2.467,6.292,4.133c1.539,1.666,2.609,3.493,3.22,5.478c0.607,1.986,0.911,3.876,0.911,5.669
		c0,1.793-0.272,3.443-0.817,4.948c-0.544,1.505-1.234,2.899-2.065,4.18c-0.831,1.282-1.793,2.497-2.881,3.652
		c-1.091,1.152-2.148,2.243-3.173,3.266c-0.769,0.769-1.569,1.586-2.404,2.451c-0.83,0.865-1.583,1.778-2.255,2.739
		c-0.673,0.96-1.234,1.97-1.683,3.026c-0.448,1.058-0.674,2.131-0.674,3.217c0,0.259,0,0.642,0,1.155s0.031,0.96,0.098,1.344h-12.68
		c-0.131-0.639-0.21-1.359-0.242-2.16c-0.033-0.804-0.049-1.491-0.049-2.066c0-1.793,0.224-3.41,0.673-4.853
		c0.448-1.441,1.041-2.787,1.778-4.036c0.736-1.25,1.585-2.417,2.547-3.508c0.96-1.088,1.953-2.145,2.978-3.171
		c1.475-1.473,2.819-2.93,4.035-4.373c1.216-1.441,1.827-3.09,1.827-4.948c0-1.537-0.595-2.849-1.779-3.939
		C57.354,34.4,55.608,33.857,53.302,33.857z M62.238,82.188c0,2.82-0.912,4.997-2.74,6.532c-1.825,1.539-3.89,2.308-6.196,2.308
		s-4.372-0.769-6.197-2.308c-1.826-1.535-2.739-3.712-2.739-6.532c0-2.817,0.913-4.998,2.739-6.533
		c1.825-1.537,3.891-2.306,6.197-2.306s4.371,0.769,6.196,2.306C61.326,77.19,62.238,79.371,62.238,82.188z"/>
</g>
</svg>
